<svg
    xmlns="http://www.w3.org/2000/svg"
    width="350px"
    height="350px"
    viewBox="0 0 40 40"
    style="enable-background:new 0 0 40 40;"
    xml:space="preserve"
>
    <g>
        <!-- floor -->
        <polygon style="fill:#E6AC89;" points="1.5,30.662 1.5,21.617 20.014,8.602 38.5,20.41 38.5,30.662 20,38.458  "/>
        <!-- floor frame -->
        <path
                style="fill:#A0694A;"
                d="M20.027,9.204L38,20.684v9.646l-18,7.585L2,30.33v-8.453L20.027,9.204 M20,8L1,21.357v9.636L20,39   l19-8.007V20.136L20,8L20,8z"
        />
    </g>

    <g>
        <!-- left wall -->
        <polygon style="fill:#3DBEB8;" points="20,22.459 1.5,30.109 1.5,9.338 20,1.542 38.5,9.338 38.5,30.109  "/>
        <g>
            <!-- walls frame -->
            <path
                    style="fill:#46918B;"
                    d="M20,2.085L38,9.67v19.691l-17.618-7.286L20,21.918l-0.382,0.158L2,29.361V9.67L20,2.085 M20,1    L1,9.007v21.851L20,23l19,7.857V9.007L20,1L20,1z"
            />
        </g>
    </g>

    <!-- right wall -->
    <polygon style="fill:#43D7D1;" points="38,9.667 20,2.084 20,21.918 38,29.367 "/>

    <g>
        <!-- door -->
        <polygon style="fill:#E6AC89;" points="24.5,24.32 24.5,8.753 33.5,12.539 33.5,28.042  "/>
        <!-- door frame -->
        <path
                style="fill:#A0694A;"
                d="M25,9.506l8,3.366v14.423l-8-3.308V9.506 M24,8v16.654l10,4.135V12.207L24,8L24,8z"
        />
    </g>
    <!-- doorhandle -->
    <circle style="fill:#915D47;" cx="31.5" cy="19.5" r="0.5"/>

    <g>
        <!-- window -->
        <polygon style="fill:#b3e5fc;" points="7.5,13.12 15.5,9.562 15.5,18.023 7.5,21.507  "/>
        <g>
            <!-- window frame -->
            <path
                    style="fill:#39736D;"
                    d="M15,10.331v7.364l-7,3.049v-7.3L15,10.331 M16,8.792l-9,4.003v9.476l9-3.92V8.792L16,8.792z"
            />
        </g>
    </g>

    <!-- LOCKER ROOM ICON -->
    <svg
        xmlns="http://www.w3.org/2000/svg"
        xml:space="preserve"
        x="10"
        y="10"
        viewBox="0 0 130 130"
    >
        <style type="text/css">
            .st0{fill:#E0995E;}
            .st1{opacity:0.2;}
            .st2{fill:#231F20;}
            .st3{fill:#4F5D73;}
            .st4{fill:#FFFFFF;}
        </style>

        <g id="locked-icon">
            <g><circle class="st0" cx="32" cy="32" r="32"/></g>
            <g class="st1">
                <g>
                    <path
                        class="st2"
                        d="M45.5,33.2h-5v-7.3c0-4.7-3.8-8.5-8.5-8.5s-8.5,3.8-8.5,8.5v7.3h-5v-7.3c0-7.4,6.1-13.5,13.5-13.5     s13.5,6.1,13.5,13.5V33.2z"
                    />
                </g>
            </g>
            <g>
                <path
                    class="st3"
                    d="M45.5,31.2h-5v-7.3c0-4.7-3.8-8.5-8.5-8.5s-8.5,3.8-8.5,8.5v7.3h-5v-7.3c0-7.4,6.1-13.5,13.5-13.5    s13.5,6.1,13.5,13.5V31.2z"
                />
            </g>
            <g>
                <g>
                    <path
                        class="st3"
                        d="M32,32c-2.2,0-4,1.8-4,4c0,1.5,0.8,2.8,2,3.4V42c0,1.1,0.9,2,2,2s2-0.9,2-2v-2.6c1.2-0.7,2-2,2-3.4     C36,33.8,34.2,32,32,32z"
                    />
                </g>
            </g>
            <g class="st1">
                <path
                    class="st2"
                    d="M47,27H17c-1.7,0-3,1.3-3,3v19c0,1.7,1.3,3,3,3h30c1.7,0,3-1.3,3-3V30C50,28.3,48.7,27,47,27z M34,41.4V44    c0,1.1-0.9,2-2,2s-2-0.9-2-2v-2.6c-1.2-0.7-2-2-2-3.4c0-2.2,1.8-4,4-4s4,1.8,4,4C36,39.5,35.2,40.8,34,41.4z"
                />
            </g>
            <g>
                <path
                    class="st4"
                    d="M47,25H17c-1.7,0-3,1.3-3,3v19c0,1.7,1.3,3,3,3h30c1.7,0,3-1.3,3-3V28C50,26.3,48.7,25,47,25z M34,39.4V42    c0,1.1-0.9,2-2,2s-2-0.9-2-2v-2.6c-1.2-0.7-2-2-2-3.4c0-2.2,1.8-4,4-4s4,1.8,4,4C36,37.5,35.2,38.8,34,39.4z"
                />
            </g>
        </g>
    </svg>
</svg>
