<svg
    xmlns="http://www.w3.org/2000/svg"
    width="350px"
    height="350px"
    viewBox="0 0 40 40"
    style="enable-background:new 0 0 40 40;"
    xml:space="preserve"
>
    <g>
        <!-- floor -->
        <polygon style="fill:#E6AC89;" points="1.5,30.662 1.5,21.617 20.014,8.602 38.5,20.41 38.5,30.662 20,38.458  " />
        <!-- floor frame -->
        <path
            style="fill:#A0694A;"
            d="M20.027,9.204L38,20.684v9.646l-18,7.585L2,30.33v-8.453L20.027,9.204 M20,8L1,21.357v9.636L20,39   l19-8.007V20.136L20,8L20,8z"
        />
    </g>

    <g>
        <!-- left wall -->
        <polygon style="fill:#3DBEB8;" points="20,22.459 1.5,30.109 1.5,9.338 20,1.542 38.5,9.338 38.5,30.109  " />
        <g>
            <!-- walls frame -->
            <path
                style="fill:#46918B;"
                d="M20,2.085L38,9.67v19.691l-17.618-7.286L20,21.918l-0.382,0.158L2,29.361V9.67L20,2.085 M20,1    L1,9.007v21.851L20,23l19,7.857V9.007L20,1L20,1z"
            />
        </g>
    </g>

    <!-- right wall -->
    <polygon style="fill:#43D7D1;" points="38,9.667 20,2.084 20,21.918 38,29.367 " />

    <g>
        <!-- door -->
        <polygon style="fill:#E6AC89;" points="24.5,24.32 24.5,8.753 33.5,12.539 33.5,28.042  " />
        <!-- door frame -->
        <path
            style="fill:#A0694A;"
            d="M25,9.506l8,3.366v14.423l-8-3.308V9.506 M24,8v16.654l10,4.135V12.207L24,8L24,8z"
        />
    </g>
    <!-- doorhandle -->
    <circle style="fill:#915D47;" cx="31.5" cy="19.5" r="0.5"/>

    <g>
        <!-- window -->
        <polygon style="fill:#b3e5fc;" points="7.5,13.12 15.5,9.562 15.5,18.023 7.5,21.507  " />
        <g>
            <!-- window frame -->
            <path
                style="fill:#39736D;"
                d="M15,10.331v7.364l-7,3.049v-7.3L15,10.331 M16,8.792l-9,4.003v9.476l9-3.92V8.792L16,8.792z"
            />
        </g>
    </g>
</svg>
